<mxfile host="65bd71144e">
    <diagram id="XpMxDR3s19TgNqcgPLXI" name="ページ1">
        <mxGraphModel dx="989" dy="447" grid="1" gridSize="10" guides="1" tooltips="1" connect="1" arrows="1" fold="1" page="1" pageScale="1" pageWidth="827" pageHeight="1169" math="0" shadow="0">
            <root>
                <mxCell id="0"/>
                <mxCell id="1" parent="0"/>
                <mxCell id="2" value="開始" style="ellipse;whiteSpace=wrap;html=1;" vertex="1" parent="1">
                    <mxGeometry x="160" y="70" width="80" height="50" as="geometry"/>
                </mxCell>
                <mxCell id="3" value="実行例1" style="rounded=1;whiteSpace=wrap;html=1;" vertex="1" parent="1">
                    <mxGeometry x="145" y="20" width="110" height="30" as="geometry"/>
                </mxCell>
                <mxCell id="4" value="実行例2" style="rounded=1;whiteSpace=wrap;html=1;" vertex="1" parent="1">
                    <mxGeometry x="560" y="20" width="110" height="30" as="geometry"/>
                </mxCell>
                <mxCell id="5" value="開始" style="ellipse;whiteSpace=wrap;html=1;" vertex="1" parent="1">
                    <mxGeometry x="575" y="70" width="80" height="50" as="geometry"/>
                </mxCell>
                <mxCell id="6" value="0~100までの得点(整数値)を2つ入力してください" style="rounded=0;whiteSpace=wrap;html=1;" vertex="1" parent="1">
                    <mxGeometry x="140" y="140" width="120" height="60" as="geometry"/>
                </mxCell>
                <mxCell id="7" value="0~100までの得点(整数値)を2つ入力してください" style="rounded=0;whiteSpace=wrap;html=1;" vertex="1" parent="1">
                    <mxGeometry x="555" y="140" width="120" height="60" as="geometry"/>
                </mxCell>
            </root>
        </mxGraphModel>
    </diagram>
</mxfile>